<?xml version="1.0" encoding="UTF-8"?>
<svg id="Layer_1" data-name="Layer 1" xmlns="http://www.w3.org/2000/svg" viewBox="0 0 1080 1080">
  <defs>
    <style>
      .cls-1 {
        fill: #25c6d1;
      }
    </style>
  </defs>
  <path class="cls-1" d="m657.40695,353.55218c6.02092-26.18268,9.03041-50.06811,9.03041-71.69545,0-45.82948-12.87351-82.82632-38.62053-111.02918-25.74702-28.12357-60.32717-42.22525-103.77913-42.22525-47.49428,0-84.29286,14.8937-110.43638,44.64145-26.14351,29.7874-39.2143,71.61663-39.2143,125.52639,0,43.45341,8.83313,85.28217,26.54001,125.52687,17.70494,40.24471,43.0574,77.63707,76.05157,112.21722-23.36998,43.45293-46.69935,79.06348-70.03065,106.83021-23.3313,27.72756-42.62223,41.63099-57.91145,41.63099-20.91365,0-44.64145-23.92459-71.22014-71.81391-26.54001-47.85015-51.89053-113.04937-76.01289-195.51933-24.16297-82.46947-43.0574-173.1783-56.72197-272.12599H30.40746c18.49793,123.90269,43.84846,233.70371,76.05351,329.44319,32.1625,95.77912,68.96109,170.80174,110.43444,225.108,41.43274,54.30625,85.08392,81.44003,130.9516,81.44003,27.333,0,58.90172-16.87424,94.71004-50.66237,23.96569-22.61761,47.65287-49.71175,71.06154-81.36074-.27658-5.94162-.39649-11.88324-.39649-17.90416,0-121.52566,55.41644-221.66187,144.18485-278.02796Zm-135.7869-108.6125c9.30892,0,24.83605,0,24.83605,39.33325,0,28.12357-8.83313,66.07054-26.34079,113.16832-17.11117-32.56044-25.74702-66.42739-25.74702-101.08684,0-51.41474,19.09364-51.41474,27.25177-51.41474Z"/>
  <path class="cls-1" d="m1038.74019,796.91558c-33.78909,43.45341-82.07443,66.38774-135.19313,66.38774-114.63342,0-191.87448-107.42398-191.87448-269.11553v-.71272c.04062-14.49817.67501-28.52007,1.94186-41.98783,11.21017-120.81294,70.74434-198.68742,158.56118-198.68742,20.51909,0,38.62053,4.8324,55.53442,12.081-49.5135,10.85332-82.07249,47.05765-82.07249,95.34298,0,53.07905,41.03625,91.69958,94.11433,91.69958,53.1187,0,92.92678-39.80905,92.92678-94.1153,0-77.24106-82.03381-133.96399-197.8954-133.96399-60.08927,0-114.47482,15.0523-159.98856,42.14595-8.67453,5.14911-17.03187,10.73437-25.03333,16.75529-70.19119,52.64242-113.99903,137.17222-116.61396,239.20967-.0793,3.20871-.11992,6.41693-.11992,9.62515,0,8.04111.23983,16.00292.75431,23.84578,10.69376,169.21722,134.35952,295.97177,288.92093,295.97177,105.0073,0,191.87448-57.91048,226.8898-148.42155l-10.85235-6.06057Z"/>
</svg>